<?xml version="1.0" encoding="UTF-8"?>
<svg width="297mm" height="210mm" version="1.1" viewBox="0 0 297 210" xmlns="http://www.w3.org/2000/svg" xmlns:cc="http://creativecommons.org/ns#" xmlns:dc="http://purl.org/dc/elements/1.1/" xmlns:rdf="http://www.w3.org/1999/02/22-rdf-syntax-ns#" id="hc">
<metadata>
<rdf:RDF>
<cc:Work rdf:about="">
<dc:format>image/svg+xml</dc:format>
<dc:type rdf:resource="http://purl.org/dc/dcmitype/StillImage"/>
<dc:title/>
</cc:Work>
</rdf:RDF>
</metadata>
<g transform="translate(0,-87)">
<rect y="87" width="297" height="210" fill="#80e5ff"/>
</g>
<g>
<rect y="165.9" width="297" height="44.104" fill="#93aca7"/>
<rect y="177.76" width="297" height="13.06" fill="#e3dbdb"/>
<rect y="197.15" width="297" height=".84799" fill="#fff"/>
<rect x="0" y="198.47" width="297" height=".84799" fill="#fff"/>
</g>
<g fill="#5fd38d">
<rect y="154.14" width="297" height="11.874"/>
<rect transform="matrix(1 0 .79651 .60463 0 0)" x="-82.474" y="235.3" width="100.71" height="19.638"/>
<rect x="37.611" y="168.12" width="50.09" height="4.5907"/>
<rect x="214.54" y="168.12" width="50.09" height="4.5907"/>
<rect x="125.28" y="168.12" width="50.09" height="4.5907"/>
<rect transform="matrix(1 0 -.78386 .62094 0 0)" x="278.1" y="229.11" width="103.45" height="19.122"/>
</g>
<g>
<rect y="47.5" width="83.65" height="106.64" fill="#89a02c"/>
<rect x="221.4" y="47.5" width="75.595" height="106.64" fill="#89a02c"/>
<rect transform="matrix(.79594 -.60538 0 1 0 0)" x="104.95" y="134.12" width="19.147" height="83.537" fill="#a7ac93"/>
<rect transform="matrix(-.80584 -.59214 0 1 0 0)" x="-274.75" y="-92.087" width="19.575" height="83.537" fill="#a7ac93"/>
<rect transform="matrix(.79594 .60538 0 -1 0 0)" x="104.95" y="-67.374" width="19.147" height="83.537" fill="#a7ac93"/>
<rect transform="matrix(.80584 -.59214 0 1 0 0)" x="255.21" y="210.21" width="19.575" height="83.537" fill="#a7ac93"/>
<rect x="98.777" y="111.73" width="106.88" height="30.535" fill="#c4c8b7"/>
<rect x="107.53" y="127.03" width="84.667" height="19.655" fill="#8a916f"/>
<rect x="111.32" y="99.553" width="78.845" height="12.163" fill="#8a916f"/>
<rect x="116.26" y="90.33" width="68.956" height="9.2229" fill="#8a916f"/>
<rect y="43.096" width="83.537" height="3.1183" fill="#454837"/>
<rect y="46.214" width="83.537" height="1.286"/>
<rect transform="matrix(.78157 .62382 0 1 0 0)" x="106.88" y="-23.58" width="19.594" height="3.098" fill="#454837"/>
<rect transform="matrix(.78157 .62382 0 1 0 0)" x="106.88" y="-20.482" width="19.594" height="1.2776"/>
<rect transform="scale(-1,1)" x="-297" y="44.382" width="75.595" height="3.1183" fill="#454837"/>
<rect transform="scale(-1,1)" x="-297" y="47.5" width="75.595" height="1.286"/>
<rect transform="matrix(-.79211 .61038 0 1 0 0)" x="-279.61" y="215.05" width="20.025" height="3.098" fill="#454837"/>
<rect transform="matrix(-.79211 .61038 0 1 0 0)" x="-279.61" y="218.15" width="20.025" height="1.2776"/>
</g>
<g fill="#003380">
<rect x="99.044" y="114.07" width="14.278" height="12.963"/>
<rect x="114.33" y="114.07" width="14.278" height="12.94"/>
<rect x="129.68" y="114.07" width="14.278" height="12.94"/>
<rect x="145.01" y="114.07" width="14.278" height="12.94"/>
<rect x="160.32" y="114.07" width="14.278" height="12.94"/>
<rect x="175.73" y="114.07" width="14.278" height="12.94"/>
<rect x="191.08" y="114.07" width="14.278" height="12.957"/>
<rect x="112.78" y="105.02" width="3.2686" height="2.9347"/>
<rect x="116.26" y="105.02" width="3.2686" height="2.9347"/>
<rect x="119.73" y="105.02" width="3.2686" height="2.9347"/>
<rect x="123.2" y="105.02" width="3.2686" height="2.9347"/>
<rect x="126.67" y="105.02" width="3.2686" height="2.9347"/>
<rect x="130.15" y="105.02" width="3.2686" height="2.9347"/>
<rect x="133.62" y="105.02" width="3.2686" height="2.9347"/>
<rect x="137.09" y="105.02" width="3.2686" height="2.9347"/>
<rect x="140.57" y="105.02" width="3.2686" height="2.9347"/>
<rect x="144.1" y="105.02" width="3.2686" height="2.9347"/>
<rect x="147.58" y="105.02" width="3.2686" height="2.9347"/>
<rect x="151.05" y="105.02" width="3.2686" height="2.9347"/>
<rect x="154.52" y="105.02" width="3.2686" height="2.9347"/>
<rect x="158" y="105.02" width="3.2686" height="2.9347"/>
<rect x="161.47" y="105.02" width="3.2686" height="2.9347"/>
<rect x="164.94" y="105.02" width="3.2686" height="2.9347"/>
<rect x="168.41" y="105.02" width="3.2686" height="2.9347"/>
<rect x="171.89" y="105.02" width="3.2686" height="2.9347"/>
<rect x="175.3" y="105.02" width="3.2686" height="2.9347"/>
<rect x="178.75" y="105.02" width="3.2686" height="2.9347"/>
<rect x="182.2" y="105.02" width="3.2686" height="2.9347"/>
<rect x="185.6" y="105.02" width="3.2686" height="2.9347"/>
<rect x="99.044" y="126.79" width="8.4907" height="8.2432"/>
<rect x="192.2" y="126.78" width="13.156" height="8.2246"/>
</g>
<g>
<rect x="122.28" y="134.58" width="23.921" height="12.75" fill="#b3b3b3"/>
<rect x="113.47" y="124.22" width="7.8555" height="20.293" fill="#fff"/>
<rect x="115.91" y="144.52" width=".25401" height="2.7348" fill="#ccc"/>
<rect x="135.32" y="149.52" width="16.442" height="1.6064" fill="#1a1a1a"/>
<rect x="135.32" y="149.52" width="1.252" height="1.63" fill="#abc837"/>
<rect x="135.31" y="145.59" width=".22289" height="5.5658" fill="#454837"/>
<rect transform="rotate(90)" x="145.59" y="-151.69" width=".22289" height="16.385" fill="#454837"/>
<rect x="151.69" y="145.59" width=".22289" height="5.5658" fill="#454837"/>
<rect x="141.05" y="145.61" width=".22289" height="5.5157" fill="#454837"/>
<rect x="146.55" y="145.68" width=".22289" height="5.4477" fill="#454837"/>
<rect x="117.77" y="144.52" width=".75514" height="2.7348" fill="#ccc"/>
<rect x="120.04" y="144.52" width=".40434" height="1.2481" fill="#ccc"/>
<rect x="120.04" y="145.28" width="2.2291" height=".47972" fill="#ccc"/>
<rect x="127.69" y="134.58" width=".20667" height="12.75" fill="#22280b"/>
<rect x="134.2" y="134.58" width=".20667" height="12.75" fill="#22280b"/>
<rect x="140.18" y="134.58" width=".20667" height="12.75" fill="#22280b"/>
<rect transform="scale(1,-1)" x="155.75" y="-147.33" width="1.7373" height="15.502" fill="#c4c8b7"/>
<rect transform="scale(1,-1)" x="167.51" y="-147.33" width="1.7373" height="15.502" fill="#c4c8b7"/>
<rect transform="scale(1,-1)" x="157.49" y="-138.71" width="4.5436" height="6.8822" fill="#c4c8b7"/>
<rect transform="scale(1,-1)" x="162.97" y="-138.71" width="4.5436" height="6.8822" fill="#c4c8b7"/>
<rect transform="scale(1,-1)" x="157.49" y="-141.78" width="10.059" height=".83522" fill="#c4c8b7"/>
<rect x="171.95" y="123.58" width="7.8845" height="17.496" fill="#b3b3b3"/>
<rect x="171.95" y="141.08" width=".748" height="6.2055" fill="#b3b3b3"/>
<rect x="179.09" y="141.08" width=".748" height="6.2055" fill="#b3b3b3"/>
<rect transform="scale(1,-1)" x="158.51" y="-140.93" width="2.3553" height="2.2217" fill="#c4c8b7"/>
<rect transform="scale(1,-1)" x="164.02" y="-140.93" width="2.3553" height="2.2217" fill="#c4c8b7"/>
<rect x="183.03" y="133.13" width="5.0554" height="6.4728"/>
<rect x="185.41" y="139.6" width=".27553" height="11.97" fill="#b3b3b3"/>
<rect x="183.61" y="133.44" width="3.7418" height=".33409" fill="#f9f9f9"/>
<rect x="183.96" y="134.01" width="3.107" height=".23386" fill="#f9f9f9"/>
<rect x="184.88" y="136.47" width="1.3865" height="1.4867" fill="#00f"/>
<rect x="225.08" y="54.841" width="34.585" height="56.885" fill="#fff"/>
<rect x="226.29" y="55.975" width="32.128" height="54.618" fill="#80ffb3"/>
<rect x="2.8348" y="54.841" width="34.585" height="56.885" fill="#fff"/>
<rect x="4.0358" y="55.975" width="32.128" height="54.618" fill="#d4aa00"/>
<rect x="5.5751" y="94.339" width="29.104" height="14.269" fill="#e3dedb"/>
<rect x="28.915" y="101.85" width="3.6853" height="3.4018" fill="#d40000"/>
<rect x="27.876" y="106.15" width="1.4647" height="1.2757" fill="#d40000"/>
<rect x="30.427" y="107.28" width=".70871" height=".70871" fill="#d40000"/>
<rect x="228.27" y="94.339" width="29.104" height="14.269" fill="#e3dedb"/>
<rect x="251.61" y="101.85" width="3.6853" height="3.4018" fill="#d40000"/>
<rect x="250.57" y="106.15" width="1.4647" height="1.2757" fill="#d40000"/>
<rect x="253.12" y="107.28" width=".70871" height=".70871" fill="#d40000"/>
<text x="9.0485001" y="67.926819" fill="#ffffff" font-family="'Baekmuk Batang'" font-size="5.2917px" letter-spacing="0px" stroke-width=".26458" word-spacing="0px" style="line-height:0.5" xml:space="preserve"><tspan x="9.0485001" y="67.926819" style="line-height:0.5">WHAT'S</tspan><tspan x="9.0485001" y="73.48307" style="line-height:0.5">YOUR</tspan><tspan x="9.0485001" y="79.039322" style="line-height:0.5">SCIENCE?</tspan></text>
<text x="227.2674" y="62.336918" fill="#ffffff" font-family="'Baekmuk Batang'" font-size="6.35px" letter-spacing="0px" stroke-width=".26458" word-spacing="0px" style="line-height:1" xml:space="preserve"><tspan x="227.2674" y="62.336918" style="line-height:1">WHAT'S</tspan><tspan x="227.2674" y="68.68692" style="line-height:1">YOUR</tspan><tspan x="227.2674" y="75.036919" style="line-height:1">SCIENCE?</tspan></text>
</g>
<g>
<rect x="3.259e-7" y="151.79" width="85.139" height="3.1183" fill="#250"/>
<rect x="46.775" y="147.16" width="27.498" height="5.3862" fill="#250"/>
<rect x="28.915" y="140.64" width="17.859" height="11.906" fill="#250"/>
<rect x="51.121" y="140.74" width="14.363" height="6.8036" fill="#250"/>
<rect x="226.2" y="152.98" width="70.806" height="2.9293" fill="#250"/>
<rect x="221.4" y="151.21" width="75.634" height="2.9293" fill="#250"/>
<rect x="147.8" y="143.59" width="3.3409" height="26.79" fill="#540"/>
<rect transform="scale(1,-1)" x="146.07" y="-170.41" width="7.3096" height="1.7468" fill="#540"/>
<rect x="148.13" y="112.7" width="2.5849" height="31.137" fill="#540"/>
<rect x="237.56" y="143.92" width="4.8067" height="26.79" fill="#536c53"/>
<rect transform="scale(1,-1)" x="235.07" y="-170.74" width="10.517" height="1.7468" fill="#536c53"/>
<rect x="238.03" y="113.03" width="3.7191" height="31.137" fill="#536c53"/>
<rect x="57.275" y="143.79" width="3.3409" height="26.79" fill="#806600"/>
<rect transform="scale(1,-1)" x="55.546" y="-170.61" width="7.3096" height="1.7468" fill="#806600"/>
<rect x="57.604" y="112.9" width="2.5849" height="31.137" fill="#806600"/>
<rect x="139.66" y="123.16" width="9.8274" height="5.8586" fill="#008000"/>
<rect x="139.66" y="131.98" width="6.5342" height="4.3288" fill="#008000"/>
<rect x="132.83" y="120" width="6.8292" height="4.8591" fill="#008000"/>
<rect x="134.04" y="112.58" width="3.8754" height="1.7373" fill="#008000"/>
<rect x="140.6" y="137.07" width="2.0789" height="1.3229" fill="#008000"/>
<rect x="146.93" y="133.31" width="5.0082" height="5.4807" fill="#008000"/>
<rect x="129.68" y="114.07" width="2.5513" height="2.3624" fill="#008000"/>
<rect x="133.81" y="128.56" width="2.6458" height=".94494" fill="#008000"/>
<rect x="154.77" y="124.15" width="5.2917" height="2.4568" fill="#008000"/>
<rect x="134.97" y="125.75" width="3.7798" height="1.3229" fill="#008000"/>
<rect x="130.2" y="120.08" width="2.4568" height="1.9844" fill="#008000"/>
<rect x="142.39" y="119.23" width="5.8586" height="3.3073" fill="#008000"/>
<rect x="152.79" y="128.3" width="6.3311" height="4.0632" fill="#008000"/>
<rect x="146.55" y="143.33" width="5.0082" height="1.7009" fill="#008000"/>
<rect x="141.07" y="141.44" width="1.7954" height=".66146" fill="#008000"/>
<rect x="130.3" y="127.78" width="1.9844" height="1.1339" fill="#008000"/>
<rect x="133.52" y="131.66" width="4.6302" height="2.3624" fill="#008000"/>
<rect x="141.54" y="129.59" width="2.6458" height="3.8742" fill="#008000"/>
<rect x="149.86" y="123.86" width="4.3467" height="3.4963" fill="#008000"/>
<rect x="151.37" y="119.51" width="4.0632" height="1.7954" fill="#008000"/>
<rect x="158.93" y="111.86" width="6.3311" height="6.9926" fill="#008000"/>
<rect x="145.32" y="112.14" width="1.2284" height="1.0394" fill="#008000"/>
<rect x="148.34" y="107.42" width="4.5357" height="2.9293" fill="#008000"/>
<rect x="136.72" y="110.54" width="2.3624" height="2.2679" fill="#008000"/>
<rect x="164.22" y="121.22" width="6.9926" height="6.8036" fill="#008000"/>
<rect x="160.06" y="120.74" width="3.5908" height="3.4018" fill="#008000"/>
<rect x="131.34" y="106.47" width="5.3862" height="4.0632" fill="#008000"/>
<rect x="141.67" y="105.02" width="4.6302" height="2.1734" fill="#008000"/>
<rect x="155.53" y="99.86" width="1.0394" height="1.3229" fill="#008000"/>
<rect x="162.97" y="130.88" width="1.1339" height=".94494" fill="#008000"/>
<rect x="167.05" y="115.26" width="8.5045" height="2.5513" fill="#008000"/>
<rect x="167.05" y="104.68" width="8.9769" height="8.41" fill="#008000"/>
<rect x="133.32" y="117.06" width="1.1339" height=".094494" fill="#008000"/>
<rect x="145.32" y="112.14" width="12.568" height="6.8036" fill="#008000"/>
<rect x="127.18" y="117.81" width="3.0238" height="2.2679" fill="#008000"/>
<rect x="141.64" y="108.55" width="1.9844" height="1.1339" fill="#008000"/>
<rect x="156.19" y="105.44" width="4.5357" height="4.2522" fill="#008000"/>
<rect x="122.08" y="114.03" width="2.8348" height="1.7009" fill="#008000"/>
<rect x="147.58" y="103.55" width="6.7431" height="2.9347" fill="#008000"/>
<rect x="140.85" y="96.143" width="6.6817" height="5.3454" fill="#008000"/>
<rect x="150.29" y="96.296" width="3.821" height="5.4542" fill="#008000"/>
<rect x="161.7" y="99.217" width="3.0404" height="5.7996" fill="#008000"/>
<rect x="136.44" y="102.29" width="5.1944" height="4.0899" fill="#008000"/>
<rect x="137.78" y="89.224" width="9.7553" height="5.8799" fill="#008000"/>
<rect x="148.63" y="83.465" width="6.8946" height="9.5703" fill="#008000"/>
<rect x="156.14" y="86.541" width="7.774" height="11.476" fill="#008000"/>
<rect x="141.25" y="79.439" width="6.1472" height="7.0826" fill="#008000"/>
<rect x="156.57" y="82.379" width="7.6716" height="2.6727" fill="#008000"/>
<rect x="171.32" y="89.729" width="5.6127" height="5.0781" fill="#008000"/>
<rect x="132.16" y="97.279" width="4.2763" height="4.1427" fill="#008000"/>
<rect x="150.34" y="76.952" width="6.2255" height="5.4264" fill="#008000"/>
<rect x="144.95" y="70.338" width="5.6696" height="3.3073" fill="#008000"/>
<rect x="155.82" y="67.975" width="4.2522" height="5.4807" fill="#008000"/>
<path d="m60.919 92.28v5.4808h4.2525v-5.4808zm4.9041 3.9656v5.4803h4.2519v-5.4803zm10.41 2.897v5.4808h1.9151v0.62167h-3.4277v5.4808h4.2519v-1.433h3.4282v-5.4808h-1.9156v-4.6695zm-29.027 1.7968v5.4808h0.64699v4.9093h1.3234v4.548h4.1765v2.4986h4.2519v-5.4808h-4.176v-2.3306h3.0582v-1.7441h0.39946v-5.4808h-4.2525v1.7441h-0.39894v5.3128h-0.12971v-4.548h-0.64699v-4.9093zm12.689 0.85576v5.4808h4.2525v-5.4808zm4.9992 3.7507v2.9807h-3.7905v5.4808h4.2519v-2.9807h0.02791v5.1707h0.9033v3.312h4.2525v-5.4808h-0.9033v-3.3119h-0.48989v-5.1707zm-27.725 4.8137v0.1788h-0.54674v5.4808h3.9067v2.896h4.2519v-5.4803h-3.3595v-3.0753zm41.087 1.8903v5.4808h4.2525v-5.4808zm-5.2054 0.13539v5.4803h4.2525v-5.4803zm12.87 5.81v5.4808h4.2525v-5.4808zm-25.607 1.4624v2.126h-0.74311v-0.76067h-4.2519v4.8023h-2.5471v5.4803h4.2525v-4.8018h1.28v0.76068h4.2519v-2.126h0.34623v0.88677h4.2519v-5.4803h-2.588v-0.88728zm-13.235 0.63717v4.7454h-1.5467v5.4803h1.6785v1.741h4.2519v-5.4808h-1.6779v-1.0051h1.5467v-5.4808zm22.719 0.27388v5.4803h4.2525v-5.4803zm8.4873 0.86145v5.4803h4.2525v-5.4803zm5.426 4.5351v3.3915h-2.7032v5.4808h4.2519v-3.3915h2.7037v-5.4808zm-47.86 1.2671v5.4803h4.2519v-5.4803zm31.31 0.8077v1.8061h-2.6836v5.4808h2.2975v4e-3h1.9379v2.6076h4.2525v-5.4803h-1.5518v-4.4178zm8.7245 4.9992v5.4808h4.2519v-5.4808zm-19.142 1.2247v5.4808h4.2519v-5.4808zm-1.0056 5.9495v5.4808h4.2519v-5.4808z" fill="#008000"/>
<path transform="scale(.26458)" d="m895.7 331.62v20.715h1.2324v11.027h8.7793v7.877h16.072v-8.9824h10.916v-20.715h-16.07v8.9844h-3.625v-7.877h-1.2324v-11.029zm-53.398 30.125v20.713h4.8242v7.9082h16.072v-20.715h-4.8242v-7.9062zm50.656 10.754v2.0566h-15.215v20.715h16.07v-2.0586h6.793v11.369h16.07v-20.713h-7.6465v-11.369zm49.088 2.748v14.174h-5.3281v9.6758h-3.2871v-17.184h-16.072v20.715h6.2812v17.182h16.072v-9.6758h13.078v-14.172h5.3262v-20.715zm17.924 0.44726v20.715h16.07v-20.715zm-88.111 19.914v6.3965h-7.6426v20.715h1.2988v8.1953h-9.1035v20.715h7.2891v17.508h15.666v10.744h2.1875v3.9297h16.072v-20.715h-2.1875v-3.9297h-15.666v-10.744h-7.291v-9.3652h2.3887v1.3809h16.07v-20.715h-0.83789v-14.449h-2.1719v-9.666zm34.83 10.258v5.1094h-15.053v20.715h0.10546v1.9043h16.07v-7.0137h12.92v18.203h2.7695v19.121h3.4551v14.088h16.072v-17.291h1.2441v-15.438h4.8652v-20.715h-7.498v-2.7402h-16.072v2.2617h-2.8066v-18.205zm59.992 31.025v20.715h16.072v-20.715zm-70.898 1.6289v20.713h16.072v-20.713zm49.008 7.4297v20.713h16.072v-20.713zm-1.1582 23.727v17.176h-10.998v5.1777h-5.4805v20.715h16.072v-5.1777h5.4785v-17.176h11v-20.715zm-87.807 8.293v20.713h16.072v-20.713zm27.393 15.422v20.715h3.9258v10.555h16.07v-0.1875h12.092v-8.5352h11.686v-20.715h-8.1816v-1.3555h-16.072v9.8906h-3.4473v-10.367zm-17.678 13.701v20.715h7.9609v18.02h14.549v14.857h2.8008v3.8516h16.072v-20.715h-2.8008v-3.8516h-14.549v-14.855h-7.9629v-18.021zm70.75 8.1016v20.715h16.072v-20.715zm-16.676 1.3633v20.715h16.07v-20.715zm45.992 15.85v20.715h16.072v-20.715zm-108.75 7.6016v20.715h16.07v-20.715z" fill="#008000"/>
<rect x="246.11" y="148.3" width="19.135" height="2.9293" fill="#250"/>
<rect x="268.48" y="146.83" width="19.135" height="4.394" fill="#250"/>
<rect x="292.44" y="145.36" width="4.5772" height="5.864" fill="#250"/>
</g>
<g>
<rect x="142.79" y="162.94" width="1.1339" height="16.82" fill="#1a1a1a"/>
<rect x="170.98" y="162.94" width="1.1339" height="16.82" fill="#1a1a1a"/>
<rect transform="scale(1,-1)" x="198.98" y="-179.76" width="1.1339" height="16.82" fill="#1a1a1a"/>
<rect x="114.79" y="162.94" width="1.1339" height="16.82" fill="#1a1a1a"/>
<rect x="86.788" y="162.94" width="1.1339" height="16.82" fill="#1a1a1a"/>
<rect x="226.98" y="162.94" width="1.1339" height="16.82" fill="#1a1a1a"/>
<rect x="254.98" y="162.94" width="1.1339" height="16.82" fill="#1a1a1a"/>
<rect x="282.98" y="162.94" width="1.1339" height="16.82" fill="#1a1a1a"/>
<rect x=".06187" y="163.89" width="296.91" height=".41851" fill="#1a1a1a"/>
<rect x=".057936" y="178.86" width="296.92" height=".41851" fill="#1a1a1a"/>
<rect x="58" y="162.94" width="1.1339" height="16.82" fill="#1a1a1a"/>
<rect x="30" y="162.94" width="1.1339" height="16.82" fill="#1a1a1a"/>
<rect x="2" y="162.94" width="1.1339" height="16.82" fill="#1a1a1a"/>
<rect x="75.37" y="145.32" width="2.94" height="38.22" fill="#214478"/>
<rect x="48.376" y="145.32" width="2.1382" height="38.22" fill="#214478"/>
<rect x="19.778" y="145.32" width="2.1382" height="38.22" fill="#214478"/>
<rect y="141.96" width="81.832" height="3.4018" fill="#214478"/>
<rect x="-2.5832e-6" y="174.21" width="76.729" height="1.8152" fill="#214478"/>
<rect x="1.4305e-6" y="176.59" width="76.729" height="1.1339" fill="#214478"/>
<rect x="60.31" y="170.91" width="13.717" height="2.6059" fill="#c8ab37"/>
<rect x="32.648" y="170.91" width="13.717" height="2.6059" fill="#c8ab37"/>
<rect x="4.7183" y="170.91" width="13.717" height="2.6059" fill="#c8ab37"/>
<rect y="145.74" width="13.607" height="11.738" fill="#161650"/>
<rect x="10.772" y="145.36" width="2.8348" height=".37992" fill="#161650"/>
<rect x="257.97" y="167.29" width="10.772" height="13.607" fill="#5fbcd3"/>
<rect x="258.7" y="180.9" width="9.3023" height="1.6468" fill="#5fbcd3"/>
<rect x="258.54" y="167.99" width="9.6683" height="1.2177" fill="#1c2224"/>
</g>
</svg>
