<svg width="297mm" height="210mm" version="1.1" viewBox="0 0 297 210" xmlns="http://www.w3.org/2000/svg" xmlns:cc="http://creativecommons.org/ns#" xmlns:dc="http://purl.org/dc/elements/1.1/" xmlns:rdf="http://www.w3.org/1999/02/22-rdf-syntax-ns#">
<defs>
<filter id="ew" color-interpolation-filters="sRGB">
<feColorMatrix values="0.21 0.72 0.072 0.14 0 0.21 0.72 0.072 0.14 0 0.21 0.72 0.072 0.14 0 0 0 0 1 0 "/>
</filter>
<filter id="ev" color-interpolation-filters="sRGB">
<feColorMatrix values="0.21 0.72 0.072 0.14 0 0.21 0.72 0.072 0.14 0 0.21 0.72 0.072 0.14 0 0 0 0 1 0 "/>
</filter>
<filter id="eu" color-interpolation-filters="sRGB">
<feColorMatrix values="0.21 0.72 0.072 0.14 0 0.21 0.72 0.072 0.14 0 0.21 0.72 0.072 0.14 0 0 0 0 1 0 "/>
</filter>
<filter id="et" color-interpolation-filters="sRGB">
<feColorMatrix values="0.21 0.72 0.072 0.14 0 0.21 0.72 0.072 0.14 0 0.21 0.72 0.072 0.14 0 0 0 0 1 0 "/>
</filter>
<filter id="es" color-interpolation-filters="sRGB">
<feColorMatrix values="0.21 0.72 0.072 0.14 0 0.21 0.72 0.072 0.14 0 0.21 0.72 0.072 0.14 0 0 0 0 1 0 "/>
</filter>
<filter id="er" color-interpolation-filters="sRGB">
<feColorMatrix values="0.21 0.72 0.072 0.14 0 0.21 0.72 0.072 0.14 0 0.21 0.72 0.072 0.14 0 0 0 0 1 0 "/>
</filter>
<filter id="eq" color-interpolation-filters="sRGB">
<feColorMatrix values="0.21 0.72 0.072 0.14 0 0.21 0.72 0.072 0.14 0 0.21 0.72 0.072 0.14 0 0 0 0 1 0 "/>
</filter>
<filter id="ep" color-interpolation-filters="sRGB">
<feColorMatrix values="0.21 0.72 0.072 0.14 0 0.21 0.72 0.072 0.14 0 0.21 0.72 0.072 0.14 0 0 0 0 1 0 "/>
</filter>
<filter id="eo" color-interpolation-filters="sRGB">
<feColorMatrix values="0.21 0.72 0.072 0.14 0 0.21 0.72 0.072 0.14 0 0.21 0.72 0.072 0.14 0 0 0 0 1 0 "/>
</filter>
<filter id="en" color-interpolation-filters="sRGB">
<feColorMatrix values="0.21 0.72 0.072 0.14 0 0.21 0.72 0.072 0.14 0 0.21 0.72 0.072 0.14 0 0 0 0 1 0 "/>
</filter>
<filter id="em" color-interpolation-filters="sRGB">
<feColorMatrix values="0.21 0.72 0.072 0.14 0 0.21 0.72 0.072 0.14 0 0.21 0.72 0.072 0.14 0 0 0 0 1 0 "/>
</filter>
<filter id="el" color-interpolation-filters="sRGB">
<feColorMatrix values="0.21 0.72 0.072 0.14 0 0.21 0.72 0.072 0.14 0 0.21 0.72 0.072 0.14 0 0 0 0 1 0 "/>
</filter>
<filter id="ek" color-interpolation-filters="sRGB">
<feColorMatrix values="0.21 0.72 0.072 0.14 0 0.21 0.72 0.072 0.14 0 0.21 0.72 0.072 0.14 0 0 0 0 1 0 "/>
</filter>
<filter id="ej" color-interpolation-filters="sRGB">
<feColorMatrix values="0.21 0.72 0.072 0.14 0 0.21 0.72 0.072 0.14 0 0.21 0.72 0.072 0.14 0 0 0 0 1 0 "/>
</filter>
<filter id="ei" color-interpolation-filters="sRGB">
<feColorMatrix values="0.21 0.72 0.072 0.14 0 0.21 0.72 0.072 0.14 0 0.21 0.72 0.072 0.14 0 0 0 0 1 0 "/>
</filter>
<filter id="eh" color-interpolation-filters="sRGB">
<feColorMatrix values="0.21 0.72 0.072 0.14 0 0.21 0.72 0.072 0.14 0 0.21 0.72 0.072 0.14 0 0 0 0 1 0 "/>
</filter>
<filter id="eg" color-interpolation-filters="sRGB">
<feColorMatrix values="0.21 0.72 0.072 0.14 0 0.21 0.72 0.072 0.14 0 0.21 0.72 0.072 0.14 0 0 0 0 1 0 "/>
</filter>
<filter id="ef" color-interpolation-filters="sRGB">
<feColorMatrix values="0.21 0.72 0.072 0.14 0 0.21 0.72 0.072 0.14 0 0.21 0.72 0.072 0.14 0 0 0 0 1 0 "/>
</filter>
<filter id="ee" color-interpolation-filters="sRGB">
<feColorMatrix values="0.21 0.72 0.072 0.14 0 0.21 0.72 0.072 0.14 0 0.21 0.72 0.072 0.14 0 0 0 0 1 0 "/>
</filter>
<filter id="ed" color-interpolation-filters="sRGB">
<feColorMatrix values="0.21 0.72 0.072 0.14 0 0.21 0.72 0.072 0.14 0 0.21 0.72 0.072 0.14 0 0 0 0 1 0 "/>
</filter>
<filter id="ec" color-interpolation-filters="sRGB">
<feColorMatrix values="0.21 0.72 0.072 0.14 0 0.21 0.72 0.072 0.14 0 0.21 0.72 0.072 0.14 0 0 0 0 1 0 "/>
</filter>
<filter id="eb" color-interpolation-filters="sRGB">
<feColorMatrix values="0.21 0.72 0.072 0.14 0 0.21 0.72 0.072 0.14 0 0.21 0.72 0.072 0.14 0 0 0 0 1 0 "/>
</filter>
<filter id="ea" color-interpolation-filters="sRGB">
<feColorMatrix values="0.21 0.72 0.072 0.14 0 0.21 0.72 0.072 0.14 0 0.21 0.72 0.072 0.14 0 0 0 0 1 0 "/>
</filter>
<filter id="dz" color-interpolation-filters="sRGB">
<feColorMatrix values="0.21 0.72 0.072 0.14 0 0.21 0.72 0.072 0.14 0 0.21 0.72 0.072 0.14 0 0 0 0 1 0 "/>
</filter>
<filter id="dy" color-interpolation-filters="sRGB">
<feColorMatrix values="0.21 0.72 0.072 0.14 0 0.21 0.72 0.072 0.14 0 0.21 0.72 0.072 0.14 0 0 0 0 1 0 "/>
</filter>
<filter id="dx" color-interpolation-filters="sRGB">
<feColorMatrix values="0.21 0.72 0.072 0.14 0 0.21 0.72 0.072 0.14 0 0.21 0.72 0.072 0.14 0 0 0 0 1 0 "/>
</filter>
<filter id="dw" color-interpolation-filters="sRGB">
<feColorMatrix values="0.21 0.72 0.072 0.14 0 0.21 0.72 0.072 0.14 0 0.21 0.72 0.072 0.14 0 0 0 0 1 0 "/>
</filter>
<filter id="dv" color-interpolation-filters="sRGB">
<feColorMatrix values="0.21 0.72 0.072 0.14 0 0.21 0.72 0.072 0.14 0 0.21 0.72 0.072 0.14 0 0 0 0 1 0 "/>
</filter>
<filter id="du" color-interpolation-filters="sRGB">
<feColorMatrix values="0.21 0.72 0.072 0.14 0 0.21 0.72 0.072 0.14 0 0.21 0.72 0.072 0.14 0 0 0 0 1 0 "/>
</filter>
<filter id="dt" color-interpolation-filters="sRGB">
<feColorMatrix values="0.21 0.72 0.072 0.14 0 0.21 0.72 0.072 0.14 0 0.21 0.72 0.072 0.14 0 0 0 0 1 0 "/>
</filter>
<filter id="ds" color-interpolation-filters="sRGB">
<feColorMatrix values="0.21 0.72 0.072 0.14 0 0.21 0.72 0.072 0.14 0 0.21 0.72 0.072 0.14 0 0 0 0 1 0 "/>
</filter>
<filter id="dr" color-interpolation-filters="sRGB">
<feColorMatrix values="0.21 0.72 0.072 0.14 0 0.21 0.72 0.072 0.14 0 0.21 0.72 0.072 0.14 0 0 0 0 1 0 "/>
</filter>
<filter id="dq" color-interpolation-filters="sRGB">
<feColorMatrix values="0.21 0.72 0.072 0.14 0 0.21 0.72 0.072 0.14 0 0.21 0.72 0.072 0.14 0 0 0 0 1 0 "/>
</filter>
<filter id="dp" color-interpolation-filters="sRGB">
<feColorMatrix values="0.21 0.72 0.072 0.14 0 0.21 0.72 0.072 0.14 0 0.21 0.72 0.072 0.14 0 0 0 0 1 0 "/>
</filter>
<filter id="do" color-interpolation-filters="sRGB">
<feColorMatrix values="0.21 0.72 0.072 0.14 0 0.21 0.72 0.072 0.14 0 0.21 0.72 0.072 0.14 0 0 0 0 1 0 "/>
</filter>
<filter id="dn" color-interpolation-filters="sRGB">
<feColorMatrix values="0.21 0.72 0.072 0.14 0 0.21 0.72 0.072 0.14 0 0.21 0.72 0.072 0.14 0 0 0 0 1 0 "/>
</filter>
<filter id="dm" color-interpolation-filters="sRGB">
<feColorMatrix values="0.21 0.72 0.072 0.14 0 0.21 0.72 0.072 0.14 0 0.21 0.72 0.072 0.14 0 0 0 0 1 0 "/>
</filter>
<filter id="dl" color-interpolation-filters="sRGB">
<feColorMatrix values="0.21 0.72 0.072 0.14 0 0.21 0.72 0.072 0.14 0 0.21 0.72 0.072 0.14 0 0 0 0 1 0 "/>
</filter>
<filter id="dk" color-interpolation-filters="sRGB">
<feColorMatrix values="0.21 0.72 0.072 0.14 0 0.21 0.72 0.072 0.14 0 0.21 0.72 0.072 0.14 0 0 0 0 1 0 "/>
</filter>
<filter id="dj" color-interpolation-filters="sRGB">
<feColorMatrix values="0.21 0.72 0.072 0.14 0 0.21 0.72 0.072 0.14 0 0.21 0.72 0.072 0.14 0 0 0 0 1 0 "/>
</filter>
<filter id="di" color-interpolation-filters="sRGB">
<feColorMatrix values="0.21 0.72 0.072 0.14 0 0.21 0.72 0.072 0.14 0 0.21 0.72 0.072 0.14 0 0 0 0 1 0 "/>
</filter>
<filter id="dh" color-interpolation-filters="sRGB">
<feColorMatrix values="0.21 0.72 0.072 0.14 0 0.21 0.72 0.072 0.14 0 0.21 0.72 0.072 0.14 0 0 0 0 1 0 "/>
</filter>
<filter id="dg" color-interpolation-filters="sRGB">
<feColorMatrix values="0.21 0.72 0.072 0.14 0 0.21 0.72 0.072 0.14 0 0.21 0.72 0.072 0.14 0 0 0 0 1 0 "/>
</filter>
<filter id="df" color-interpolation-filters="sRGB">
<feColorMatrix values="0.21 0.72 0.072 0.14 0 0.21 0.72 0.072 0.14 0 0.21 0.72 0.072 0.14 0 0 0 0 1 0 "/>
</filter>
<filter id="de" color-interpolation-filters="sRGB">
<feColorMatrix values="0.21 0.72 0.072 0.14 0 0.21 0.72 0.072 0.14 0 0.21 0.72 0.072 0.14 0 0 0 0 1 0 "/>
</filter>
<filter id="dd" color-interpolation-filters="sRGB">
<feColorMatrix values="0.21 0.72 0.072 0.14 0 0.21 0.72 0.072 0.14 0 0.21 0.72 0.072 0.14 0 0 0 0 1 0 "/>
</filter>
<filter id="dc" color-interpolation-filters="sRGB">
<feColorMatrix values="0.21 0.72 0.072 0.14 0 0.21 0.72 0.072 0.14 0 0.21 0.72 0.072 0.14 0 0 0 0 1 0 "/>
</filter>
<filter id="db" color-interpolation-filters="sRGB">
<feColorMatrix values="0.21 0.72 0.072 0.14 0 0.21 0.72 0.072 0.14 0 0.21 0.72 0.072 0.14 0 0 0 0 1 0 "/>
</filter>
<filter id="da" color-interpolation-filters="sRGB">
<feColorMatrix values="0.21 0.72 0.072 0.14 0 0.21 0.72 0.072 0.14 0 0.21 0.72 0.072 0.14 0 0 0 0 1 0 "/>
</filter>
<filter id="cz" color-interpolation-filters="sRGB">
<feColorMatrix values="0.21 0.72 0.072 0.14 0 0.21 0.72 0.072 0.14 0 0.21 0.72 0.072 0.14 0 0 0 0 1 0 "/>
</filter>
<filter id="cy" color-interpolation-filters="sRGB">
<feColorMatrix values="0.21 0.72 0.072 0.14 0 0.21 0.72 0.072 0.14 0 0.21 0.72 0.072 0.14 0 0 0 0 1 0 "/>
</filter>
<filter id="cx" color-interpolation-filters="sRGB">
<feColorMatrix values="0.21 0.72 0.072 0.14 0 0.21 0.72 0.072 0.14 0 0.21 0.72 0.072 0.14 0 0 0 0 1 0 "/>
</filter>
<filter id="cw" color-interpolation-filters="sRGB">
<feColorMatrix values="0.21 0.72 0.072 0.14 0 0.21 0.72 0.072 0.14 0 0.21 0.72 0.072 0.14 0 0 0 0 1 0 "/>
</filter>
<filter id="cv" color-interpolation-filters="sRGB">
<feColorMatrix values="0.21 0.72 0.072 0.14 0 0.21 0.72 0.072 0.14 0 0.21 0.72 0.072 0.14 0 0 0 0 1 0 "/>
</filter>
<filter id="cu" color-interpolation-filters="sRGB">
<feColorMatrix values="0.21 0.72 0.072 0.14 0 0.21 0.72 0.072 0.14 0 0.21 0.72 0.072 0.14 0 0 0 0 1 0 "/>
</filter>
<filter id="ct" color-interpolation-filters="sRGB">
<feColorMatrix values="0.21 0.72 0.072 0.14 0 0.21 0.72 0.072 0.14 0 0.21 0.72 0.072 0.14 0 0 0 0 1 0 "/>
</filter>
<filter id="cs" color-interpolation-filters="sRGB">
<feColorMatrix values="0.21 0.72 0.072 0.14 0 0.21 0.72 0.072 0.14 0 0.21 0.72 0.072 0.14 0 0 0 0 1 0 "/>
</filter>
<filter id="cr" color-interpolation-filters="sRGB">
<feColorMatrix values="0.21 0.72 0.072 0.14 0 0.21 0.72 0.072 0.14 0 0.21 0.72 0.072 0.14 0 0 0 0 1 0 "/>
</filter>
<filter id="cq" color-interpolation-filters="sRGB">
<feColorMatrix values="0.21 0.72 0.072 0.14 0 0.21 0.72 0.072 0.14 0 0.21 0.72 0.072 0.14 0 0 0 0 1 0 "/>
</filter>
<filter id="cp" color-interpolation-filters="sRGB">
<feColorMatrix values="0.21 0.72 0.072 0.14 0 0.21 0.72 0.072 0.14 0 0.21 0.72 0.072 0.14 0 0 0 0 1 0 "/>
</filter>
<filter id="co" color-interpolation-filters="sRGB">
<feColorMatrix values="0.21 0.72 0.072 0.14 0 0.21 0.72 0.072 0.14 0 0.21 0.72 0.072 0.14 0 0 0 0 1 0 "/>
</filter>
<filter id="cn" color-interpolation-filters="sRGB">
<feColorMatrix values="0.21 0.72 0.072 0.14 0 0.21 0.72 0.072 0.14 0 0.21 0.72 0.072 0.14 0 0 0 0 1 0 "/>
</filter>
<filter id="cm" color-interpolation-filters="sRGB">
<feColorMatrix values="0.21 0.72 0.072 0.14 0 0.21 0.72 0.072 0.14 0 0.21 0.72 0.072 0.14 0 0 0 0 1 0 "/>
</filter>
<filter id="cl" color-interpolation-filters="sRGB">
<feColorMatrix values="0.21 0.72 0.072 0.14 0 0.21 0.72 0.072 0.14 0 0.21 0.72 0.072 0.14 0 0 0 0 1 0 "/>
</filter>
<filter id="ck" color-interpolation-filters="sRGB">
<feColorMatrix values="0.21 0.72 0.072 0.14 0 0.21 0.72 0.072 0.14 0 0.21 0.72 0.072 0.14 0 0 0 0 1 0 "/>
</filter>
<filter id="cj" color-interpolation-filters="sRGB">
<feColorMatrix values="0.21 0.72 0.072 0.14 0 0.21 0.72 0.072 0.14 0 0.21 0.72 0.072 0.14 0 0 0 0 1 0 "/>
</filter>
<filter id="ci" color-interpolation-filters="sRGB">
<feColorMatrix values="0.21 0.72 0.072 0.14 0 0.21 0.72 0.072 0.14 0 0.21 0.72 0.072 0.14 0 0 0 0 1 0 "/>
</filter>
<filter id="ch" color-interpolation-filters="sRGB">
<feColorMatrix values="0.21 0.72 0.072 0.14 0 0.21 0.72 0.072 0.14 0 0.21 0.72 0.072 0.14 0 0 0 0 1 0 "/>
</filter>
<filter id="cg" color-interpolation-filters="sRGB">
<feColorMatrix values="0.21 0.72 0.072 0.14 0 0.21 0.72 0.072 0.14 0 0.21 0.72 0.072 0.14 0 0 0 0 1 0 "/>
</filter>
<filter id="cf" color-interpolation-filters="sRGB">
<feColorMatrix values="0.21 0.72 0.072 0.14 0 0.21 0.72 0.072 0.14 0 0.21 0.72 0.072 0.14 0 0 0 0 1 0 "/>
</filter>
<filter id="ce" color-interpolation-filters="sRGB">
<feColorMatrix values="0.21 0.72 0.072 0.14 0 0.21 0.72 0.072 0.14 0 0.21 0.72 0.072 0.14 0 0 0 0 1 0 "/>
</filter>
<filter id="cd" color-interpolation-filters="sRGB">
<feColorMatrix values="0.21 0.72 0.072 0.14 0 0.21 0.72 0.072 0.14 0 0.21 0.72 0.072 0.14 0 0 0 0 1 0 "/>
</filter>
<filter id="cc" color-interpolation-filters="sRGB">
<feColorMatrix values="0.21 0.72 0.072 0.14 0 0.21 0.72 0.072 0.14 0 0.21 0.72 0.072 0.14 0 0 0 0 1 0 "/>
</filter>
<filter id="cb" color-interpolation-filters="sRGB">
<feColorMatrix values="0.21 0.72 0.072 0.14 0 0.21 0.72 0.072 0.14 0 0.21 0.72 0.072 0.14 0 0 0 0 1 0 "/>
</filter>
<filter id="ca" color-interpolation-filters="sRGB">
<feColorMatrix values="0.21 0.72 0.072 0.14 0 0.21 0.72 0.072 0.14 0 0.21 0.72 0.072 0.14 0 0 0 0 1 0 "/>
</filter>
<filter id="bz" color-interpolation-filters="sRGB">
<feColorMatrix values="0.21 0.72 0.072 0.14 0 0.21 0.72 0.072 0.14 0 0.21 0.72 0.072 0.14 0 0 0 0 1 0 "/>
</filter>
<filter id="by" color-interpolation-filters="sRGB">
<feColorMatrix values="0.21 0.72 0.072 0.14 0 0.21 0.72 0.072 0.14 0 0.21 0.72 0.072 0.14 0 0 0 0 1 0 "/>
</filter>
<filter id="bx" color-interpolation-filters="sRGB">
<feColorMatrix values="0.21 0.72 0.072 0.14 0 0.21 0.72 0.072 0.14 0 0.21 0.72 0.072 0.14 0 0 0 0 1 0 "/>
</filter>
<filter id="bw" color-interpolation-filters="sRGB">
<feColorMatrix values="0.21 0.72 0.072 0.14 0 0.21 0.72 0.072 0.14 0 0.21 0.72 0.072 0.14 0 0 0 0 1 0 "/>
</filter>
<filter id="bv" color-interpolation-filters="sRGB">
<feColorMatrix values="0.21 0.72 0.072 0.14 0 0.21 0.72 0.072 0.14 0 0.21 0.72 0.072 0.14 0 0 0 0 1 0 "/>
</filter>
<filter id="bu" color-interpolation-filters="sRGB">
<feColorMatrix values="0.21 0.72 0.072 0.14 0 0.21 0.72 0.072 0.14 0 0.21 0.72 0.072 0.14 0 0 0 0 1 0 "/>
</filter>
<filter id="bt" color-interpolation-filters="sRGB">
<feColorMatrix values="0.21 0.72 0.072 0.14 0 0.21 0.72 0.072 0.14 0 0.21 0.72 0.072 0.14 0 0 0 0 1 0 "/>
</filter>
<filter id="bs" color-interpolation-filters="sRGB">
<feColorMatrix values="0.21 0.72 0.072 0.14 0 0.21 0.72 0.072 0.14 0 0.21 0.72 0.072 0.14 0 0 0 0 1 0 "/>
</filter>
<filter id="br" color-interpolation-filters="sRGB">
<feColorMatrix values="0.21 0.72 0.072 0.14 0 0.21 0.72 0.072 0.14 0 0.21 0.72 0.072 0.14 0 0 0 0 1 0 "/>
</filter>
<filter id="bq" color-interpolation-filters="sRGB">
<feColorMatrix values="0.21 0.72 0.072 0.14 0 0.21 0.72 0.072 0.14 0 0.21 0.72 0.072 0.14 0 0 0 0 1 0 "/>
</filter>
<filter id="bp" color-interpolation-filters="sRGB">
<feColorMatrix values="0.21 0.72 0.072 0.14 0 0.21 0.72 0.072 0.14 0 0.21 0.72 0.072 0.14 0 0 0 0 1 0 "/>
</filter>
<filter id="bo" color-interpolation-filters="sRGB">
<feColorMatrix values="0.21 0.72 0.072 0.14 0 0.21 0.72 0.072 0.14 0 0.21 0.72 0.072 0.14 0 0 0 0 1 0 "/>
</filter>
<filter id="bn" color-interpolation-filters="sRGB">
<feColorMatrix values="0.21 0.72 0.072 0.14 0 0.21 0.72 0.072 0.14 0 0.21 0.72 0.072 0.14 0 0 0 0 1 0 "/>
</filter>
<filter id="bm" color-interpolation-filters="sRGB">
<feColorMatrix values="0.21 0.72 0.072 0.14 0 0.21 0.72 0.072 0.14 0 0.21 0.72 0.072 0.14 0 0 0 0 1 0 "/>
</filter>
<filter id="bl" color-interpolation-filters="sRGB">
<feColorMatrix values="0.21 0.72 0.072 0.14 0 0.21 0.72 0.072 0.14 0 0.21 0.72 0.072 0.14 0 0 0 0 1 0 "/>
</filter>
<filter id="bk" color-interpolation-filters="sRGB">
<feColorMatrix values="0.21 0.72 0.072 0.14 0 0.21 0.72 0.072 0.14 0 0.21 0.72 0.072 0.14 0 0 0 0 1 0 "/>
</filter>
<filter id="bj" color-interpolation-filters="sRGB">
<feColorMatrix values="0.21 0.72 0.072 0.14 0 0.21 0.72 0.072 0.14 0 0.21 0.72 0.072 0.14 0 0 0 0 1 0 "/>
</filter>
<filter id="bi" color-interpolation-filters="sRGB">
<feColorMatrix values="0.21 0.72 0.072 0.14 0 0.21 0.72 0.072 0.14 0 0.21 0.72 0.072 0.14 0 0 0 0 1 0 "/>
</filter>
<filter id="bh" color-interpolation-filters="sRGB">
<feColorMatrix values="0.21 0.72 0.072 0.14 0 0.21 0.72 0.072 0.14 0 0.21 0.72 0.072 0.14 0 0 0 0 1 0 "/>
</filter>
<filter id="bg" color-interpolation-filters="sRGB">
<feColorMatrix values="0.21 0.72 0.072 0.14 0 0.21 0.72 0.072 0.14 0 0.21 0.72 0.072 0.14 0 0 0 0 1 0 "/>
</filter>
<filter id="bf" color-interpolation-filters="sRGB">
<feColorMatrix values="0.21 0.72 0.072 0.14 0 0.21 0.72 0.072 0.14 0 0.21 0.72 0.072 0.14 0 0 0 0 1 0 "/>
</filter>
<filter id="be" color-interpolation-filters="sRGB">
<feColorMatrix values="0.21 0.72 0.072 0.14 0 0.21 0.72 0.072 0.14 0 0.21 0.72 0.072 0.14 0 0 0 0 1 0 "/>
</filter>
<filter id="bd" color-interpolation-filters="sRGB">
<feColorMatrix values="0.21 0.72 0.072 0.14 0 0.21 0.72 0.072 0.14 0 0.21 0.72 0.072 0.14 0 0 0 0 1 0 "/>
</filter>
<filter id="bc" color-interpolation-filters="sRGB">
<feColorMatrix values="0.21 0.72 0.072 0.14 0 0.21 0.72 0.072 0.14 0 0.21 0.72 0.072 0.14 0 0 0 0 1 0 "/>
</filter>
<filter id="bb" color-interpolation-filters="sRGB">
<feColorMatrix values="0.21 0.72 0.072 0.14 0 0.21 0.72 0.072 0.14 0 0.21 0.72 0.072 0.14 0 0 0 0 1 0 "/>
</filter>
<filter id="ba" color-interpolation-filters="sRGB">
<feColorMatrix values="0.21 0.72 0.072 0.14 0 0.21 0.72 0.072 0.14 0 0.21 0.72 0.072 0.14 0 0 0 0 1 0 "/>
</filter>
<filter id="az" color-interpolation-filters="sRGB">
<feColorMatrix values="0.21 0.72 0.072 0.14 0 0.21 0.72 0.072 0.14 0 0.21 0.72 0.072 0.14 0 0 0 0 1 0 "/>
</filter>
<filter id="ay" color-interpolation-filters="sRGB">
<feColorMatrix values="0.21 0.72 0.072 0.14 0 0.21 0.72 0.072 0.14 0 0.21 0.72 0.072 0.14 0 0 0 0 1 0 "/>
</filter>
<filter id="ax" color-interpolation-filters="sRGB">
<feColorMatrix values="0.21 0.72 0.072 0.14 0 0.21 0.72 0.072 0.14 0 0.21 0.72 0.072 0.14 0 0 0 0 1 0 "/>
</filter>
<filter id="aw" color-interpolation-filters="sRGB">
<feColorMatrix values="0.21 0.72 0.072 0.14 0 0.21 0.72 0.072 0.14 0 0.21 0.72 0.072 0.14 0 0 0 0 1 0 "/>
</filter>
<filter id="av" color-interpolation-filters="sRGB">
<feColorMatrix values="0.21 0.72 0.072 0.14 0 0.21 0.72 0.072 0.14 0 0.21 0.72 0.072 0.14 0 0 0 0 1 0 "/>
</filter>
<filter id="au" color-interpolation-filters="sRGB">
<feColorMatrix values="0.21 0.72 0.072 0.14 0 0.21 0.72 0.072 0.14 0 0.21 0.72 0.072 0.14 0 0 0 0 1 0 "/>
</filter>
<filter id="at" color-interpolation-filters="sRGB">
<feColorMatrix values="0.21 0.72 0.072 0.14 0 0.21 0.72 0.072 0.14 0 0.21 0.72 0.072 0.14 0 0 0 0 1 0 "/>
</filter>
<filter id="as" color-interpolation-filters="sRGB">
<feColorMatrix values="0.21 0.72 0.072 0.14 0 0.21 0.72 0.072 0.14 0 0.21 0.72 0.072 0.14 0 0 0 0 1 0 "/>
</filter>
<filter id="ar" color-interpolation-filters="sRGB">
<feColorMatrix values="0.21 0.72 0.072 0.14 0 0.21 0.72 0.072 0.14 0 0.21 0.72 0.072 0.14 0 0 0 0 1 0 "/>
</filter>
<filter id="aq" color-interpolation-filters="sRGB">
<feColorMatrix values="0.21 0.72 0.072 0.14 0 0.21 0.72 0.072 0.14 0 0.21 0.72 0.072 0.14 0 0 0 0 1 0 "/>
</filter>
<filter id="ap" color-interpolation-filters="sRGB">
<feColorMatrix values="0.21 0.72 0.072 0.14 0 0.21 0.72 0.072 0.14 0 0.21 0.72 0.072 0.14 0 0 0 0 1 0 "/>
</filter>
<filter id="ao" color-interpolation-filters="sRGB">
<feColorMatrix values="0.21 0.72 0.072 0.14 0 0.21 0.72 0.072 0.14 0 0.21 0.72 0.072 0.14 0 0 0 0 1 0 "/>
</filter>
<filter id="an" color-interpolation-filters="sRGB">
<feColorMatrix values="0.21 0.72 0.072 0.14 0 0.21 0.72 0.072 0.14 0 0.21 0.72 0.072 0.14 0 0 0 0 1 0 "/>
</filter>
<filter id="am" color-interpolation-filters="sRGB">
<feColorMatrix values="0.21 0.72 0.072 0.14 0 0.21 0.72 0.072 0.14 0 0.21 0.72 0.072 0.14 0 0 0 0 1 0 "/>
</filter>
<filter id="al" color-interpolation-filters="sRGB">
<feColorMatrix values="0.21 0.72 0.072 0.14 0 0.21 0.72 0.072 0.14 0 0.21 0.72 0.072 0.14 0 0 0 0 1 0 "/>
</filter>
<filter id="ak" color-interpolation-filters="sRGB">
<feColorMatrix values="0.21 0.72 0.072 0.14 0 0.21 0.72 0.072 0.14 0 0.21 0.72 0.072 0.14 0 0 0 0 1 0 "/>
</filter>
<filter id="aj" color-interpolation-filters="sRGB">
<feColorMatrix values="0.21 0.72 0.072 0.14 0 0.21 0.72 0.072 0.14 0 0.21 0.72 0.072 0.14 0 0 0 0 1 0 "/>
</filter>
<filter id="ai" color-interpolation-filters="sRGB">
<feColorMatrix values="0.21 0.72 0.072 0.14 0 0.21 0.72 0.072 0.14 0 0.21 0.72 0.072 0.14 0 0 0 0 1 0 "/>
</filter>
<filter id="ah" color-interpolation-filters="sRGB">
<feColorMatrix values="0.21 0.72 0.072 0.14 0 0.21 0.72 0.072 0.14 0 0.21 0.72 0.072 0.14 0 0 0 0 1 0 "/>
</filter>
<filter id="ag" color-interpolation-filters="sRGB">
<feColorMatrix values="0.21 0.72 0.072 0.14 0 0.21 0.72 0.072 0.14 0 0.21 0.72 0.072 0.14 0 0 0 0 1 0 "/>
</filter>
<filter id="af" color-interpolation-filters="sRGB">
<feColorMatrix values="0.21 0.72 0.072 0.14 0 0.21 0.72 0.072 0.14 0 0.21 0.72 0.072 0.14 0 0 0 0 1 0 "/>
</filter>
<filter id="ae" color-interpolation-filters="sRGB">
<feColorMatrix values="0.21 0.72 0.072 0.14 0 0.21 0.72 0.072 0.14 0 0.21 0.72 0.072 0.14 0 0 0 0 1 0 "/>
</filter>
<filter id="ad" color-interpolation-filters="sRGB">
<feColorMatrix values="0.21 0.72 0.072 0.14 0 0.21 0.72 0.072 0.14 0 0.21 0.72 0.072 0.14 0 0 0 0 1 0 "/>
</filter>
<filter id="ac" color-interpolation-filters="sRGB">
<feColorMatrix values="0.21 0.72 0.072 0.14 0 0.21 0.72 0.072 0.14 0 0.21 0.72 0.072 0.14 0 0 0 0 1 0 "/>
</filter>
<filter id="ab" color-interpolation-filters="sRGB">
<feColorMatrix values="0.21 0.72 0.072 0.14 0 0.21 0.72 0.072 0.14 0 0.21 0.72 0.072 0.14 0 0 0 0 1 0 "/>
</filter>
<filter id="aa" color-interpolation-filters="sRGB">
<feColorMatrix values="0.21 0.72 0.072 0.14 0 0.21 0.72 0.072 0.14 0 0.21 0.72 0.072 0.14 0 0 0 0 1 0 "/>
</filter>
<filter id="z" color-interpolation-filters="sRGB">
<feColorMatrix values="0.21 0.72 0.072 0.14 0 0.21 0.72 0.072 0.14 0 0.21 0.72 0.072 0.14 0 0 0 0 1 0 "/>
</filter>
<filter id="y" color-interpolation-filters="sRGB">
<feColorMatrix values="0.21 0.72 0.072 0.14 0 0.21 0.72 0.072 0.14 0 0.21 0.72 0.072 0.14 0 0 0 0 1 0 "/>
</filter>
<filter id="x" color-interpolation-filters="sRGB">
<feColorMatrix values="0.21 0.72 0.072 0.14 0 0.21 0.72 0.072 0.14 0 0.21 0.72 0.072 0.14 0 0 0 0 1 0 "/>
</filter>
<filter id="w" color-interpolation-filters="sRGB">
<feColorMatrix values="0.21 0.72 0.072 0.14 0 0.21 0.72 0.072 0.14 0 0.21 0.72 0.072 0.14 0 0 0 0 1 0 "/>
</filter>
<filter id="v" color-interpolation-filters="sRGB">
<feColorMatrix values="0.21 0.72 0.072 0.14 0 0.21 0.72 0.072 0.14 0 0.21 0.72 0.072 0.14 0 0 0 0 1 0 "/>
</filter>
<filter id="u" color-interpolation-filters="sRGB">
<feColorMatrix values="0.21 0.72 0.072 0.14 0 0.21 0.72 0.072 0.14 0 0.21 0.72 0.072 0.14 0 0 0 0 1 0 "/>
</filter>
<filter id="t" color-interpolation-filters="sRGB">
<feColorMatrix values="0.21 0.72 0.072 0.14 0 0.21 0.72 0.072 0.14 0 0.21 0.72 0.072 0.14 0 0 0 0 1 0 "/>
</filter>
<filter id="s" color-interpolation-filters="sRGB">
<feColorMatrix values="0.21 0.72 0.072 0.14 0 0.21 0.72 0.072 0.14 0 0.21 0.72 0.072 0.14 0 0 0 0 1 0 "/>
</filter>
<filter id="r" color-interpolation-filters="sRGB">
<feColorMatrix values="0.21 0.72 0.072 0.14 0 0.21 0.72 0.072 0.14 0 0.21 0.72 0.072 0.14 0 0 0 0 1 0 "/>
</filter>
<filter id="q" color-interpolation-filters="sRGB">
<feColorMatrix values="0.21 0.72 0.072 0.14 0 0.21 0.72 0.072 0.14 0 0.21 0.72 0.072 0.14 0 0 0 0 1 0 "/>
</filter>
<filter id="p" color-interpolation-filters="sRGB">
<feColorMatrix values="0.21 0.72 0.072 0.14 0 0.21 0.72 0.072 0.14 0 0.21 0.72 0.072 0.14 0 0 0 0 1 0 "/>
</filter>
<filter id="o" color-interpolation-filters="sRGB">
<feColorMatrix values="0.21 0.72 0.072 0.14 0 0.21 0.72 0.072 0.14 0 0.21 0.72 0.072 0.14 0 0 0 0 1 0 "/>
</filter>
<filter id="n" color-interpolation-filters="sRGB">
<feColorMatrix values="0.21 0.72 0.072 0.14 0 0.21 0.72 0.072 0.14 0 0.21 0.72 0.072 0.14 0 0 0 0 1 0 "/>
</filter>
<filter id="m" color-interpolation-filters="sRGB">
<feColorMatrix values="0.21 0.72 0.072 0.14 0 0.21 0.72 0.072 0.14 0 0.21 0.72 0.072 0.14 0 0 0 0 1 0 "/>
</filter>
<filter id="l" color-interpolation-filters="sRGB">
<feColorMatrix values="0.21 0.72 0.072 0.14 0 0.21 0.72 0.072 0.14 0 0.21 0.72 0.072 0.14 0 0 0 0 1 0 "/>
</filter>
<filter id="k" color-interpolation-filters="sRGB">
<feColorMatrix values="0.21 0.72 0.072 0.14 0 0.21 0.72 0.072 0.14 0 0.21 0.72 0.072 0.14 0 0 0 0 1 0 "/>
</filter>
<filter id="j" color-interpolation-filters="sRGB">
<feColorMatrix values="0.21 0.72 0.072 0.14 0 0.21 0.72 0.072 0.14 0 0.21 0.72 0.072 0.14 0 0 0 0 1 0 "/>
</filter>
<filter id="i" color-interpolation-filters="sRGB">
<feColorMatrix values="0.21 0.72 0.072 0.14 0 0.21 0.72 0.072 0.14 0 0.21 0.72 0.072 0.14 0 0 0 0 1 0 "/>
</filter>
<filter id="h" color-interpolation-filters="sRGB">
<feColorMatrix values="0.21 0.72 0.072 0.14 0 0.21 0.72 0.072 0.14 0 0.21 0.72 0.072 0.14 0 0 0 0 1 0 "/>
</filter>
<filter id="g" color-interpolation-filters="sRGB">
<feColorMatrix values="0.21 0.72 0.072 0.14 0 0.21 0.72 0.072 0.14 0 0.21 0.72 0.072 0.14 0 0 0 0 1 0 "/>
</filter>
<filter id="f" color-interpolation-filters="sRGB">
<feColorMatrix values="0.21 0.72 0.072 0.14 0 0.21 0.72 0.072 0.14 0 0.21 0.72 0.072 0.14 0 0 0 0 1 0 "/>
</filter>
<filter id="e" color-interpolation-filters="sRGB">
<feColorMatrix values="0.21 0.72 0.072 0.14 0 0.21 0.72 0.072 0.14 0 0.21 0.72 0.072 0.14 0 0 0 0 1 0 "/>
</filter>
<filter id="d" color-interpolation-filters="sRGB">
<feColorMatrix values="0.21 0.72 0.072 0.14 0 0.21 0.72 0.072 0.14 0 0.21 0.72 0.072 0.14 0 0 0 0 1 0 "/>
</filter>
<filter id="c" color-interpolation-filters="sRGB">
<feColorMatrix values="0.21 0.72 0.072 0.14 0 0.21 0.72 0.072 0.14 0 0.21 0.72 0.072 0.14 0 0 0 0 1 0 "/>
</filter>
<filter id="b" color-interpolation-filters="sRGB">
<feColorMatrix values="0.21 0.72 0.072 0.14 0 0.21 0.72 0.072 0.14 0 0.21 0.72 0.072 0.14 0 0 0 0 1 0 "/>
</filter>
<filter id="a" color-interpolation-filters="sRGB">
<feColorMatrix values="0.21 0.72 0.072 0.14 0 0.21 0.72 0.072 0.14 0 0.21 0.72 0.072 0.14 0 0 0 0 1 0 "/>
</filter>
</defs>
<metadata>
<rdf:RDF>
<cc:Work rdf:about="">
<dc:format>image/svg+xml</dc:format>
<dc:type rdf:resource="http://purl.org/dc/dcmitype/StillImage"/>
<dc:title/>
</cc:Work>
</rdf:RDF>
</metadata>
<g transform="translate(0,-87)">
<rect y="87" width="297" height="210" fill="#80e5ff" filter="url(#a)"/>
</g>
<g>
<rect y="165.9" width="297" height="44.104" fill="#93aca7" filter="url(#b)"/>
<rect y="177.76" width="297" height="13.06" fill="#e3dbdb" filter="url(#c)"/>
<rect y="197.15" width="297" height=".84799" fill="#fff" filter="url(#d)"/>
<rect x="9.0599e-6" y="198.47" width="297" height=".84799" fill="#fff" filter="url(#e)"/>
</g>
<g fill="#5fd38d">
<rect y="154.14" width="297" height="11.874" filter="url(#f)"/>
<rect transform="matrix(1 0 .79651 .60463 0 0)" x="-82.474" y="235.3" width="100.71" height="19.638" filter="url(#g)"/>
<rect x="37.611" y="168.12" width="50.09" height="4.5907" filter="url(#h)"/>
<rect x="214.54" y="168.12" width="50.09" height="4.5907" filter="url(#i)"/>
<rect x="125.28" y="168.12" width="50.09" height="4.5907" filter="url(#j)"/>
<rect transform="matrix(1 0 -.78386 .62094 0 0)" x="278.1" y="229.11" width="103.45" height="19.122" filter="url(#k)"/>
</g>
<g>
<rect y="47.5" width="83.65" height="106.64" fill="#89a02c" filter="url(#l)"/>
<rect x="221.4" y="47.5" width="75.595" height="106.64" fill="#89a02c" filter="url(#m)"/>
<rect transform="matrix(.79594 -.60538 0 1 0 0)" x="104.95" y="134.12" width="19.147" height="83.537" fill="#a7ac93" filter="url(#n)"/>
<rect transform="matrix(-.80584 -.59214 0 1 0 0)" x="-274.75" y="-92.087" width="19.575" height="83.537" fill="#a7ac93" filter="url(#o)"/>
<rect transform="matrix(.79594 .60538 0 -1 0 0)" x="104.95" y="-67.374" width="19.147" height="83.537" fill="#a7ac93" filter="url(#p)"/>
<rect transform="matrix(.80584 -.59214 0 1 0 0)" x="255.21" y="210.21" width="19.575" height="83.537" fill="#a7ac93" filter="url(#q)"/>
<rect x="98.777" y="111.73" width="106.88" height="30.535" fill="#c4c8b7" filter="url(#r)"/>
<rect x="107.53" y="127.03" width="84.667" height="19.655" fill="#8a916f" filter="url(#s)"/>
<rect x="111.32" y="99.553" width="78.845" height="12.163" fill="#8a916f" filter="url(#t)"/>
<rect x="116.26" y="90.33" width="68.956" height="9.2229" fill="#8a916f" filter="url(#u)"/>
<rect y="43.096" width="83.537" height="3.1183" fill="#454837" filter="url(#v)"/>
<rect y="46.214" width="83.537" height="1.286" filter="url(#w)"/>
<rect transform="matrix(.78157 .62382 0 1 0 0)" x="106.88" y="-23.58" width="19.594" height="3.098" fill="#454837" filter="url(#x)"/>
<rect transform="matrix(.78157 .62382 0 1 0 0)" x="106.88" y="-20.482" width="19.594" height="1.2776" filter="url(#y)"/>
<rect transform="scale(-1,1)" x="-297" y="44.382" width="75.595" height="3.1183" fill="#454837" filter="url(#z)"/>
<rect transform="scale(-1,1)" x="-297" y="47.5" width="75.595" height="1.286" filter="url(#aa)"/>
<rect transform="matrix(-.79211 .61038 0 1 0 0)" x="-279.61" y="215.05" width="20.025" height="3.098" fill="#454837" filter="url(#ab)"/>
<rect transform="matrix(-.79211 .61038 0 1 0 0)" x="-279.61" y="218.15" width="20.025" height="1.2776" filter="url(#ac)"/>
</g>
<g fill="#003380">
<rect x="99.044" y="114.07" width="14.278" height="12.963" filter="url(#ad)"/>
<rect x="114.33" y="114.07" width="14.278" height="12.94" filter="url(#ae)"/>
<rect x="129.68" y="114.07" width="14.278" height="12.94" filter="url(#af)"/>
<rect x="145.01" y="114.07" width="14.278" height="12.94" filter="url(#ag)"/>
<rect x="160.32" y="114.07" width="14.278" height="12.94" filter="url(#ah)"/>
<rect x="175.73" y="114.07" width="14.278" height="12.94" filter="url(#ai)"/>
<rect x="191.08" y="114.07" width="14.278" height="12.957" filter="url(#aj)"/>
<rect x="112.78" y="105.02" width="3.2686" height="2.9347" filter="url(#ak)"/>
<rect x="116.26" y="105.02" width="3.2686" height="2.9347" filter="url(#al)"/>
<rect x="119.73" y="105.02" width="3.2686" height="2.9347" filter="url(#am)"/>
<rect x="123.2" y="105.02" width="3.2686" height="2.9347" filter="url(#an)"/>
<rect x="126.67" y="105.02" width="3.2686" height="2.9347" filter="url(#ao)"/>
<rect x="130.15" y="105.02" width="3.2686" height="2.9347" filter="url(#ap)"/>
<rect x="133.62" y="105.02" width="3.2686" height="2.9347" filter="url(#aq)"/>
<rect x="137.09" y="105.02" width="3.2686" height="2.9347" filter="url(#ar)"/>
<rect x="140.57" y="105.02" width="3.2686" height="2.9347" filter="url(#as)"/>
<rect x="144.1" y="105.02" width="3.2686" height="2.9347" filter="url(#at)"/>
<rect x="147.58" y="105.02" width="3.2686" height="2.9347" filter="url(#au)"/>
<rect x="151.05" y="105.02" width="3.2686" height="2.9347" filter="url(#av)"/>
<rect x="154.52" y="105.02" width="3.2686" height="2.9347" filter="url(#aw)"/>
<rect x="158" y="105.02" width="3.2686" height="2.9347" filter="url(#ax)"/>
<rect x="161.47" y="105.02" width="3.2686" height="2.9347" filter="url(#ay)"/>
<rect x="164.94" y="105.02" width="3.2686" height="2.9347" filter="url(#az)"/>
<rect x="168.41" y="105.02" width="3.2686" height="2.9347" filter="url(#ba)"/>
<rect x="171.89" y="105.02" width="3.2686" height="2.9347" filter="url(#bb)"/>
<rect x="175.3" y="105.02" width="3.2686" height="2.9347" filter="url(#bc)"/>
<rect x="178.75" y="105.02" width="3.2686" height="2.9347" filter="url(#bd)"/>
<rect x="182.2" y="105.02" width="3.2686" height="2.9347" filter="url(#be)"/>
<rect x="185.6" y="105.02" width="3.2686" height="2.9347" filter="url(#bf)"/>
<rect x="99.044" y="126.79" width="8.4907" height="8.2432" filter="url(#bg)"/>
<rect x="192.2" y="126.78" width="13.156" height="8.2246" filter="url(#bh)"/>
</g>
<g>
<rect x="122.28" y="134.58" width="23.921" height="12.75" fill="#b3b3b3" filter="url(#bi)"/>
<rect x="113.47" y="124.22" width="7.8555" height="20.293" fill="#fff" filter="url(#bj)"/>
<rect x="115.91" y="144.52" width=".25401" height="2.7348" fill="#ccc" filter="url(#bk)"/>
<rect x="135.32" y="149.52" width="16.442" height="1.6064" fill="#1a1a1a" filter="url(#bl)"/>
<rect x="135.32" y="149.52" width="1.252" height="1.63" fill="#abc837" filter="url(#bm)"/>
<rect x="135.31" y="145.59" width=".22289" height="5.5658" fill="#454837" filter="url(#bn)"/>
<rect transform="rotate(90)" x="145.59" y="-151.69" width=".22289" height="16.385" fill="#454837" filter="url(#bo)"/>
<rect x="151.69" y="145.59" width=".22289" height="5.5658" fill="#454837" filter="url(#bp)"/>
<rect x="141.05" y="145.61" width=".22289" height="5.5157" fill="#454837" filter="url(#bq)"/>
<rect x="146.55" y="145.68" width=".22289" height="5.4477" fill="#454837" filter="url(#br)"/>
<rect x="117.77" y="144.52" width=".75514" height="2.7348" fill="#ccc" filter="url(#bs)"/>
<rect x="120.04" y="144.52" width=".40434" height="1.2481" fill="#ccc" filter="url(#bt)"/>
<rect x="120.04" y="145.28" width="2.2291" height=".47972" fill="#ccc" filter="url(#bu)"/>
<rect x="127.69" y="134.58" width=".20667" height="12.75" fill="#22280b" filter="url(#bv)"/>
<rect x="134.2" y="134.58" width=".20667" height="12.75" fill="#22280b" filter="url(#bw)"/>
<rect x="140.18" y="134.58" width=".20667" height="12.75" fill="#22280b" filter="url(#bx)"/>
<rect transform="scale(1,-1)" x="155.75" y="-147.33" width="1.7373" height="15.502" fill="#c4c8b7" filter="url(#by)"/>
<rect transform="scale(1,-1)" x="167.51" y="-147.33" width="1.7373" height="15.502" fill="#c4c8b7" filter="url(#bz)"/>
<rect transform="scale(1,-1)" x="157.49" y="-138.71" width="4.5436" height="6.8822" fill="#c4c8b7" filter="url(#ca)"/>
<rect transform="scale(1,-1)" x="162.97" y="-138.71" width="4.5436" height="6.8822" fill="#c4c8b7" filter="url(#cb)"/>
<rect transform="scale(1,-1)" x="157.49" y="-141.78" width="10.059" height=".83522" fill="#c4c8b7" filter="url(#cc)"/>
<rect x="171.95" y="123.58" width="7.8845" height="17.496" fill="#b3b3b3" filter="url(#cd)"/>
<rect x="171.95" y="141.08" width=".748" height="6.2055" fill="#b3b3b3" filter="url(#ce)"/>
<rect x="179.09" y="141.08" width=".748" height="6.2055" fill="#b3b3b3" filter="url(#cf)"/>
<rect transform="scale(1,-1)" x="158.51" y="-140.93" width="2.3553" height="2.2217" fill="#c4c8b7" filter="url(#cg)"/>
<rect transform="scale(1,-1)" x="164.02" y="-140.93" width="2.3553" height="2.2217" fill="#c4c8b7" filter="url(#ch)"/>
<rect x="183.03" y="133.13" width="5.0554" height="6.4728" filter="url(#ci)"/>
<rect x="185.41" y="139.6" width=".27553" height="11.97" fill="#b3b3b3" filter="url(#cj)"/>
<rect x="183.61" y="133.44" width="3.7418" height=".33409" fill="#f9f9f9" filter="url(#ck)"/>
<rect x="183.96" y="134.01" width="3.107" height=".23386" fill="#f9f9f9" filter="url(#cl)"/>
<rect x="184.88" y="136.47" width="1.3865" height="1.4867" fill="#00f" filter="url(#cm)"/>
<rect x="225.08" y="54.841" width="34.585" height="56.885" fill="#fff" filter="url(#cn)"/>
<rect x="226.29" y="55.975" width="32.128" height="54.618" fill="#8093d0" filter="url(#co)"/>
<rect x="2.8348" y="54.841" width="34.585" height="56.885" fill="#fff" filter="url(#cp)"/>
<rect x="4.0358" y="55.975" width="32.128" height="54.618" fill="#d4aa00" filter="url(#cq)"/>
<rect x="5.5751" y="94.339" width="29.104" height="14.269" fill="#e3dedb" filter="url(#cr)"/>
<rect x="28.915" y="101.85" width="3.6853" height="3.4018" fill="#d40000" filter="url(#cs)"/>
<rect x="27.876" y="106.15" width="1.4647" height="1.2757" fill="#d40000" filter="url(#ct)"/>
<rect x="30.427" y="107.28" width=".70871" height=".70871" fill="#d40000" filter="url(#cu)"/>
<rect x="228.27" y="94.339" width="29.104" height="14.269" fill="#e3dedb" filter="url(#cv)"/>
<rect x="251.61" y="101.85" width="3.6853" height="3.4018" fill="#d40000" filter="url(#cw)"/>
<rect x="250.57" y="106.15" width="1.4647" height="1.2757" fill="#d40000" filter="url(#cx)"/>
<rect x="253.12" y="107.28" width=".70871" height=".70871" fill="#d40000" filter="url(#cy)"/>
<text x="9.0485001" y="67.926819" fill="#ffffff" filter="url(#cz)" font-family="'Baekmuk Batang'" font-size="5.2917px" letter-spacing="0px" stroke-width=".26458" word-spacing="0px" style="line-height:0.5" xml:space="preserve"><tspan x="9.0485001" y="67.926819" style="line-height:0.5">WHAT'S</tspan><tspan x="9.0485001" y="73.48307" style="line-height:0.5">YOUR</tspan><tspan x="9.0485001" y="79.039322" style="line-height:0.5">SCIENCE?</tspan></text>
<text x="227.2674" y="62.336918" fill="#ffffff" filter="url(#da)" font-family="'Baekmuk Batang'" font-size="6.35px" letter-spacing="0px" stroke-width=".26458" word-spacing="0px" style="line-height:1" xml:space="preserve"><tspan x="227.2674" y="62.336918" style="line-height:1">WHAT'S</tspan><tspan x="227.2674" y="68.68692" style="line-height:1">YOUR</tspan><tspan x="227.2674" y="75.036919" style="line-height:1">SCIENCE?</tspan></text>
</g>
<g>
<rect x="3.259e-7" y="151.79" width="85.139" height="3.1183" fill="#250" filter="url(#db)"/>
<rect x="46.775" y="147.16" width="27.498" height="5.3862" fill="#250" filter="url(#dc)"/>
<rect x="28.915" y="140.64" width="17.859" height="11.906" fill="#250" filter="url(#dd)"/>
<rect x="51.121" y="140.74" width="14.363" height="6.8036" fill="#250" filter="url(#de)"/>
<rect x="226.2" y="152.98" width="70.806" height="2.9293" fill="#250" filter="url(#df)"/>
<rect x="221.4" y="151.21" width="75.634" height="2.9293" fill="#250" filter="url(#dg)"/>
<rect x="147.8" y="143.59" width="3.3409" height="26.79" fill="#540" filter="url(#dh)"/>
<rect transform="scale(1,-1)" x="146.07" y="-170.41" width="7.3096" height="1.7468" fill="#540" filter="url(#di)"/>
<rect x="148.13" y="112.7" width="2.5849" height="31.137" fill="#540" filter="url(#dj)"/>
<rect x="237.56" y="143.92" width="4.8067" height="26.79" fill="#536c53" filter="url(#dk)"/>
<rect transform="scale(1,-1)" x="235.07" y="-170.74" width="10.517" height="1.7468" fill="#536c53" filter="url(#dl)"/>
<rect x="238.03" y="113.03" width="3.7191" height="31.137" fill="#536c53" filter="url(#dm)"/>
<rect x="57.275" y="143.79" width="3.3409" height="26.79" fill="#806600" filter="url(#dn)"/>
<rect transform="scale(1,-1)" x="55.546" y="-170.61" width="7.3096" height="1.7468" fill="#806600" filter="url(#do)"/>
<rect x="57.604" y="112.9" width="2.5849" height="31.137" fill="#806600" filter="url(#dp)"/>
<path d="m59.639 86.468c-1.6166 0.02464-3.2332 0.83476-4.1129 2.4986-1.7459 3.5113-0.34641 6.0655 1.7927 7.2089-1.1398 0.3315-2.1736 1.0905-2.8158 2.3048-0.04248 0.08544-0.08161 0.16994-0.1204 0.25425-2.0032-2.139-6.2565-2.028-9.3173-3.1094-1.8004 0.27347-6.5335 1.4535-5.6575 4.5387-0.25514 3.411 0.78208 5.4881 1.9487 7.4404-2.6015-1.5272-4.1641-4.0865-9.5803-2.3797-2.9211 6.3325 1.5296 9.9889 4.3594 12.377 1.0336 0.42072 1.9501 0.63158 2.758 0.67489 0.0095 0.77756 0.04817 1.5807 0.10697 2.39-3.2704-0.38994-7.2581 0.82554-8.5406 3.2515-2.8868 5.8057 5.7244 7.4631 10.331 5.3526 0.30773 0.69039 0.65035 1.2654 1.0284 1.6764 3.6764 0.9701 5.9556 0.5435 7.2388-0.87953 0.77572 0.31496 1.7288 0.38031 2.6996 0.25012-0.14649 0.19628-0.28495 0.40326-0.40566 0.63148-1.0016 2.0144-0.96729 3.7149-0.35347 5.0152-0.24454 0.27593-0.46637 0.5844-0.65216 0.93586-3.6078 7.2559 6.2068 10.444 8.2517 5.4808 0.77838-1.9949 0.80527-3.6383 0.36948-4.9051 0.25519-0.29658 0.47151-0.64371 0.63665-1.0444 0.35475-0.90936 0.55214-1.7447 0.62219-2.5058 0.75547 0.58516 1.7803 0.71984 3.0944 0.092 0.34697 2.851 3.6662 1.8551 6.4105-0.7581 0.47394 4.611 7.3411 6.005 9.0134 1.9456 0.21842-0.55979 0.37562-1.0913 0.48214-1.5952 0.12658-0.0244 0.25546-0.0524 0.38912-0.0868 5.5569-0.22496 7.2988-4.265 6.9551-10.391 0.18289-0.28322 0.27969-0.54329 0.30592-0.78186 0.82176-0.37995 1.5078-1.031 1.9027-1.9895 2.8217-7.2319-4.2224-9.8508-7.4326-6.598 0.95357-2.9731 0.17534-5.0909-1.2573-6.2622 1.0414-1.1055 1.4613-2.8332 0.91881-5.5227-0.92378-4.849-1.6636-9.882-9.1679-8.1504-1.6419-0.74632-3.3508 6.0342-3.93 7.9406 0.07918-0.59909-0.3951-1.0502-1.1534-1.3575 0.8315-0.3784 1.5266-1.0318 1.9249-1.9988 2.0708-5.3073-1.1729-8.1272-4.315-7.969-0.39523-2.628-2.5612-4.008-4.7284-3.975z" fill="#008000" fill-opacity=".86175" filter="url(#dr)"/>
<path transform="scale(.26458)" d="m906.15 321.33c-10.99-0.21518-24.566 2.9229-20.01 17.85 0.23978 7.178-0.8822 16.841 1.1875 24.396-5.5629 0.27484-10.922 1.1021-15.035 4.2402-0.23346-3.4831-0.22677-6.8706 0.46485-9.998-7.7886 5.5514-6.9965-8.5313-15.797-6.3262-9.6106 0.54053-26.916-1.2039-24.213 14.033-0.0665 15.228-2.6709 25.937 7.5742 31.432 3.8575 3.0348 8.9302 3.8604 14.129 3.6484-2.0186 8.7639 4.8205 21.366-6.1719 25.4-2.4811 10.811-4.2133 33.173 2.2285 36.48 3.4977-1.3836 3.5217 2.015 3.7832 5.9727-5.6039-0.4421-10.673-1.7589-8.0195 7.5059-2.8534 16.923-1.4235 29.563 9.1523 33.057 0.10189 0.87496 0.28148 1.8043 0.5625 2.8047-2.4627 9.118-1.5228 14.608 0.39844 18.738-6.0009-0.30277-11.909-2.4128-9.0879 7.4394-4.0497 24.018 0.50164 39.435 27.631 32.273 1.9894-0.57763 3.6878-2.083 5.0781-4.166 6.2368 10.557 27.182 11.851 34.924 2.7559 1.6414-6.1037 2.9179-14.708 1.8887-22.275 4.5642 2.4728 11.308 2.7639 20.869 0.24024 0.0535-0.0155 0.10514-0.0379 0.15821-0.0547 4.2057 0.8637 9.6301 0.50747 16.518-1.3106 0.14462-0.042 0.28607-0.097 0.42773-0.14843 0.46206 14.957 7.9482 22.889 28.895 17.361 14.244-4.1357 14.174-54.658-15.119-39.832-1.5978 0.25538-3.3167 0.15932-4.9727 0.0156-0.28468-6.2029-2.0377-12.24-5.541-16.018 0.70343-2.7315 1.1843-5.3288 1.9961-7.0508 12.896-3.1584 10.495-17.787 8.6602-28.996 0.36016-0.65421 0.69375-1.351 1-2.0859 3.9795 0.51836 8.9359 0.0584 15.047-1.5547 14.244-4.1357 14.174-54.658-15.119-39.832-3.1804 0.50753-6.8346-0.35686-9.502-0.2461-0.34246-3.8019-1.1316-7.1762-2.4922-9.5137 0.0994-7e-5 0.19339-9e-3 0.29492-6e-3 3.0972-2.9959 4.0988-6.5256 5.0215-10.051 3.9862 0.52674 8.9545 0.0716 15.086-1.5469 14.244-4.1357 14.176-54.658-15.117-39.832-0.26877 0.0429-0.54548 0.0614-0.82031 0.0859-2.4322-1.3763-5.8169-1.7235-10.549-0.52929-2.2692 0.92791-6.2289 0.31475-10.012-0.10743 3.1163-10.516-0.7598-22.629 0.71875-33.598-10.909 0.0351-20.905 3.3595-24.266-8.0312-1.9066-1.8414-4.747-2.65-7.3594-2.3477-1.4041-0.143-2.9202-0.24269-4.4902-0.27344z" fill="#008000" fill-opacity=".86175" filter="url(#ds)"/>
<rect x="246.11" y="148.3" width="19.135" height="2.9293" fill="#250" filter="url(#dt)"/>
<rect x="268.48" y="146.83" width="19.135" height="4.394" fill="#250" filter="url(#du)"/>
<rect x="292.44" y="145.36" width="4.5772" height="5.864" fill="#250" filter="url(#dv)"/>
<path transform="scale(.26458)" d="m596.91 247.47c-6.1086 0.0917-12.218 3.1548-15.545 9.4453-1.6447 3.3078-2.5442 6.389-2.8535 9.2227-2.8736-13.956-39.108-11.114-38.219-0.29102-8.2251 15.605 6.8035 22.659 20.047 21.947 0.0528 0.87617 0.15753 1.8762 0.3125 3.0547-0.20419 0.69323-0.37218 1.3519-0.54492 2.0137-3.296-2.6945-7.9896-3.26-14.352-0.17579-6.7948 2.3649-24.031-5.9394-19.451 7.5606-2.4193 12.913-2.0717 23.057 2.1992 29.279-9.0255-0.94214-17.886-1.4688-15.332 7.7031-3.0238 10.244-2.7658 17.207-0.23242 21.895-9.2523-1.8974-20.368 1.1952-20.982 8.5488-8.0764 14.825 2.9006 23.519 14.023 24.691-0.0598 0.25451-0.1118 0.50475-0.16015 0.7539-7.8065 0.40234-15.229 3.7488-16.994 9.3086-5.0455 10.143-2.1898 16.947 3.6465 20.766-6.6624-0.55631-12.178 0.0405-9.9141 7.9492-0.53606 2.1928-0.76029 4.1625-0.72852 5.9199-0.56438 0.0549-1.1169 0.12254-1.6562 0.20508 3.1636-4.827 2.2124-10.444-8.0742-13.824-7.0086 2.1329-22.418-5.8181-18.277 7.5606-2.883 16.873 9.4589 17.596 18.664 12.805 0.13864 0.46862 0.32665 0.95481 0.625 1.4785-3.9719 11.176 3.0854 16.754 11.205 17.361 0.99146 5.2326 4.3679 7.3832 8.418 7.5098 0.74887 2.0826 1.9555 3.8113 3.5059 5.2266-0.0209-6.1e-4 -0.0396-1e-3 -0.0605-2e-3 -7.0924 0.68632-14.075-3.458-11.279 7.5586-0.79656 12.378 5.3185 14.699 11.582 12.674 0.0221 0.62039 0.2058 1.2812 0.58203 1.9863-6.7309 14.486 9.8226 20.352 22.182 17.74 0.99581 2.0142 2.516 3.6143 4.3867 4.873-0.21512 3.8838 0.47001 6.6562 1.748 8.5195 0.0928 1.9621 0.85357 4.5897 0.23047 5.8359 3.9916 27.441 32.091-1.564 18.154-7.4922 1.2562-1.0627 2.3359-2.2407 3.166-3.4727 2.7872 5.5632 8.5283 8.7068 14.955 9.5586-9.2877-0.0763-18.093 2.1246-15.562 8.5527-8.6558 22.554 47.217 20.963 34.045-3.7793-0.24977-2.1053-6.6482-3.9207-13.857-4.5391 5.4357-0.18182 10.957-1.8886 15.289-5.0508 2.0084-8.1237 2.3631-14.592 1.2539-19.598 9.3219 1.1796 20.42-1.2159 25.891-4.6894 0.25173-0.83806 0.46691-1.6384 0.66992-2.4277 4.5981 13.252 19.572-0.49558 18.664-9.1973 6.2126 0.98176 13.869 0.51821 22.602-1.0195 5.3543-9.248 7.6396-28.113 0.75196-37.676 8.4028-1.0469 16.188-3.1931 19.453-4.6738 2.3988-8.1315 1.8483-13.315-0.63281-16.566 7.8274-10.366 2.0123-37.144-1.3613-44.416-8.2616 2.6533-26.326-2.1483-36.971-0.61133 1.7872-8.0401-1.0851-14.239-5.6367-17.91 2.6588-9.8358 0.20806-24.782 0.58984-36.895 2.0613-3.6402 1.811-6.5234 0.0488-8.7422 0.62836-0.77813 1.0382-1.6043 1.1699-2.4707 8.6418-16.771-11.706-21.084-27.564-18.922-0.22047-6.8638-1.8265-12.343-5.2461-16.008 7.0011 0.89724 14.143-1.7814 17.072-8.8887 7.6806-19.689-3.9827-30.341-15.645-30.166zm-18.441 22.621c0.43964 4.7601 2.6769 8.6191 5.8301 11.418-2.679-0.26272-5.7387-0.14572-9.1934 0.36719 1.5714-1.9658 2.2914-4.4039 1.7363-7.3106 0.83191-1.6121 1.3549-3.0998 1.627-4.4746zm75.297 60.203c-4.2451 0.0665-8.891 0.53441-13.816 1.2812v7.5586c-12.051 29.556 21.62 32.898 36.326 22.973 6.7356-24.843-4.1144-32.1-22.51-31.812z" fill="#008000" fill-opacity=".86175" filter="url(#dq)"/>
</g>
<g>
<rect x="142.79" y="162.94" width="1.1339" height="16.82" fill="#1a1a1a" filter="url(#dw)"/>
<rect x="170.98" y="162.94" width="1.1339" height="16.82" fill="#1a1a1a" filter="url(#dx)"/>
<rect transform="scale(1,-1)" x="198.98" y="-179.76" width="1.1339" height="16.82" fill="#1a1a1a" filter="url(#dy)"/>
<rect x="114.79" y="162.94" width="1.1339" height="16.82" fill="#1a1a1a" filter="url(#dz)"/>
<rect x="86.788" y="162.94" width="1.1339" height="16.82" fill="#1a1a1a" filter="url(#ea)"/>
<rect x="226.98" y="162.94" width="1.1339" height="16.82" fill="#1a1a1a" filter="url(#eb)"/>
<rect x="254.98" y="162.94" width="1.1339" height="16.82" fill="#1a1a1a" filter="url(#ec)"/>
<rect x="282.98" y="162.94" width="1.1339" height="16.82" fill="#1a1a1a" filter="url(#ed)"/>
<rect x=".06187" y="163.89" width="296.91" height=".41851" fill="#1a1a1a" filter="url(#ee)"/>
<rect x=".057936" y="178.86" width="296.92" height=".41851" fill="#1a1a1a" filter="url(#ef)"/>
<rect x="58" y="162.94" width="1.1339" height="16.82" fill="#1a1a1a" filter="url(#eg)"/>
<rect x="30" y="162.94" width="1.1339" height="16.82" fill="#1a1a1a" filter="url(#eh)"/>
<rect x="2" y="162.94" width="1.1339" height="16.82" fill="#1a1a1a" filter="url(#ei)"/>
<rect x="75.37" y="145.32" width="2.94" height="38.22" fill="#214478" filter="url(#ej)"/>
<rect x="48.376" y="145.32" width="2.1382" height="38.22" fill="#214478" filter="url(#ek)"/>
<rect x="19.778" y="145.32" width="2.1382" height="38.22" fill="#214478" filter="url(#el)"/>
<rect y="141.96" width="81.832" height="3.4018" fill="#214478" filter="url(#em)"/>
<rect x="-2.5832e-6" y="174.21" width="76.729" height="1.8152" fill="#214478" filter="url(#en)"/>
<rect x="1.4305e-6" y="176.59" width="76.729" height="1.1339" fill="#214478" filter="url(#eo)"/>
<rect x="60.31" y="170.91" width="13.717" height="2.6059" fill="#c8ab37" filter="url(#ep)"/>
<rect x="32.648" y="170.91" width="13.717" height="2.6059" fill="#c8ab37" filter="url(#eq)"/>
<rect x="4.7183" y="170.91" width="13.717" height="2.6059" fill="#c8ab37" filter="url(#er)"/>
<rect y="145.74" width="13.607" height="11.738" fill="#161650" filter="url(#es)"/>
<rect x="10.772" y="145.36" width="2.8348" height=".37992" fill="#161650" filter="url(#et)"/>
<rect x="257.97" y="167.29" width="10.772" height="13.607" fill="#5fbcd3" filter="url(#eu)"/>
<rect x="258.7" y="180.9" width="9.3023" height="1.6468" fill="#5fbcd3" filter="url(#ev)"/>
<rect x="258.54" y="167.99" width="9.6683" height="1.2177" fill="#1c2224" filter="url(#ew)"/>
</g>
</svg>
